<svg width="500" height="500" xmlns="http://www.w3.org/2000/svg">

 <g>
  <title>Layer 1</title>
  <g stroke="null">
   <!--! Font Awesome Pro 6.4.2 by @fontawesome - https://fontawesome.com License - https://fontawesome.com/license (Commercial License) Copyright 2023 Fonticons, Inc. -->
   <path stroke="null" d="m329.36681,170.6745c-14.62754,0 -26.44528,-11.81773 -26.44528,-26.44528s11.81773,-26.44528 26.44528,-26.44528l132.22638,0c14.62754,0 26.44528,11.81773 26.44528,26.44528l0,132.22638c0,14.62754 -11.81773,26.44528 -26.44528,26.44528s-26.44528,-11.81773 -26.44528,-26.44528l0,-68.34451l-139.99468,139.91204c-10.33019,10.33019 -27.10641,10.33019 -37.43659,0l-87.02149,-87.02149l-113.5494,113.46676c-10.33019,10.33019 -27.10641,10.33019 -37.43659,0s-10.33019,-27.10641 0,-37.43659l132.22638,-132.22638c10.33019,-10.33019 27.10641,-10.33019 37.43659,0l87.10413,87.10413l121.23506,-121.23506l-68.34451,0z" fill="rgb(30, 184, 84)"/>
  </g>
 </g>
</svg>